<svg width="46" height="40" viewBox="0 0 46 40" fill="none" xmlns="http://www.w3.org/2000/svg">
<g clip-path="url(#clip0_406_120)">
<path d="M20.5 33.2502H43C43.9686 33.2502 44.75 34.0316 44.75 35.0002C44.7499 35.9687 43.9685 36.7502 43 36.7502H20.5C19.5315 36.7502 18.7501 35.9687 18.75 35.0002C18.75 34.0316 19.5314 33.2502 20.5 33.2502ZM1.7627 3.76288C2.40347 3.12251 3.41685 3.08241 4.10449 3.64276L4.23828 3.76288L19.2354 18.7648C19.8763 19.4058 19.9164 20.4157 19.3555 21.1027L19.2354 21.2355L4.2373 36.2355C3.59636 36.8762 2.58279 36.9162 1.89551 36.3557L1.7627 36.2355C1.12195 35.5946 1.08195 34.5847 1.64258 33.8976L1.7627 33.7648L14.9912 20.5305L15.5215 20.0002L14.9912 19.4699L1.7627 6.23749C1.07938 5.55388 1.07853 4.44559 1.76172 3.7619L1.7627 3.76288Z" stroke="#3294F8" stroke-width="1.5"/>
</g>
<defs>
<clipPath id="clip0_406_120">
<rect width="45" height="40" fill="white" transform="translate(0.5)"/>
</clipPath>
</defs>
</svg>
